<svg id="图层_1" data-name="图层 1" xmlns="http://www.w3.org/2000/svg" viewBox="0 0 128 128"><title>dd</title><path class="cls-1" d="M97.11,22.09a8.81,8.81,0,0,1,8.8,8.8V97.11a8.81,8.81,0,0,1-8.8,8.8H30.89a8.81,8.81,0,0,1-8.8-8.8V30.89a8.81,8.81,0,0,1,8.8-8.8Zm-5.89,58v-.54a.58.58,0,0,0-.53-.54.26.26,0,0,0-.27-.27l-7.58-7.57a2.62,2.62,0,0,0-3.7-.08l-.09.08a2.61,2.61,0,0,0-.1,3.69l.1.1,1.89,1.88c-8.11-2.43-14.06-8.1-14.06-15.12,0-11.89-12.18-21.62-27.07-21.62a2.71,2.71,0,0,0,0,5.41c11.91,0,21.65,7.29,21.65,16.21,0,10.26,8.93,18.91,21.11,21.07l-3.52,3.51A2.6,2.6,0,0,0,79,90a.94.94,0,0,0,.1.1,2.61,2.61,0,0,0,3.7.09l.09-.09,7.57-7.56c.27-.27.54-.54.54-.81V80.64a.84.84,0,0,0,.27-.54Zm0-32.42a2.45,2.45,0,0,0-.8-1.89l-7.59-7.56a2.61,2.61,0,0,0-3.7-.09l-.09.09A2.61,2.61,0,0,0,79,41.91L79,42l4.06,4.05a30.39,30.39,0,0,0-12.17,4.86,2.41,2.41,0,0,0-.54,3.78,2.47,2.47,0,0,0,2.16,1.09,3.84,3.84,0,0,0,1.62-.54A25.89,25.89,0,0,1,80.94,52l-2.16,1.36a2.6,2.6,0,0,0-.1,3.68.94.94,0,0,0,.1.1,2.62,2.62,0,0,0,3.7.08.3.3,0,0,0,.08-.08l6.76-6.76A2.61,2.61,0,0,0,91.22,48v-.27ZM39.81,67.13h8.12a2.7,2.7,0,1,0,0-5.4H39.81a2.55,2.55,0,0,0-2.7,2.7A2.71,2.71,0,0,0,39.81,67.13ZM58,75.5c-4.06,4.87-10.83,7.57-18.14,7.57a2.7,2.7,0,0,0,0,5.4c8.94,0,17.32-3.51,22.19-9.18a2.79,2.79,0,0,0-4-3.88l-.09.09Z"/></svg>
