<svg id="图层_1" data-name="图层 1" xmlns="http://www.w3.org/2000/svg" viewBox="0 0 128 128"><title>index</title><path class="cls-1" d="M83.44,61.09,61.32,85.28a4,4,0,0,1-3,1.31h0a4,4,0,0,1-3-1.34l-10.8-12.1a4,4,0,0,1,6-5.37l7.82,8.77,19.12-20.9a4,4,0,0,1,6,5.44m16.83-39.35h-8s0,2.59,0,4.08v8a8.07,8.07,0,0,1-8,8.11H43.83a8.08,8.08,0,0,1-8-8.11v-8c0-1.49,0-2.71,0-4.07H27.68a8,8,0,0,0-8,8v72.64a8,8,0,0,0,8,8h72.65a8,8,0,0,0,8-8V29.77a8.07,8.07,0,0,0-8.08-8"/><path class="cls-1" d="M83.73,20.26a5.38,5.38,0,0,0-4.64-2.7H49.36a5.38,5.38,0,0,0-4.64,2.7A5.45,5.45,0,0,0,44,23v5.36a5.42,5.42,0,0,0,5.4,5.44H79.09a5.42,5.42,0,0,0,5.4-5.44V23a5.41,5.41,0,0,0-.76-2.73"/></svg>
