<svg id="图层_1" data-name="图层 1" xmlns="http://www.w3.org/2000/svg" viewBox="0 0 128 128"><title>kf</title><path class="cls-1" d="M86.36,70.93v.26c0,7.13-10.56,12.93-23.49,12.93s-23.49-5.8-23.49-12.93v-.26Zm-7,36.55A33,33,0,0,0,108.54,84a4.14,4.14,0,0,0,1.32.13,7,7,0,0,0,7-7V60.63a7,7,0,0,0-7-7V48.88A32.86,32.86,0,0,0,77,16H51.13A32.86,32.86,0,0,0,18.27,48.88V53.5a7.07,7.07,0,0,0-7.13,7V76.87a7,7,0,0,0,7,7,7,7,0,0,0,7-7v-28A25.9,25.9,0,0,1,51,23H76.86a25.9,25.9,0,0,1,25.86,25.86V74.62a25.81,25.81,0,0,1-24,25.74h-5A8.37,8.37,0,0,0,66.3,95.6a8.19,8.19,0,1,0,0,16.38,8,8,0,0,0,7.39-4.76Zm-3-11.74h2.9A18.8,18.8,0,0,0,98,77V46.51A18.81,18.81,0,0,0,79.23,27.77H48.74A18.8,18.8,0,0,0,30,46.51V77A18.8,18.8,0,0,0,48.74,95.73H56.4a12.85,12.85,0,0,1,10-4.75,13.7,13.7,0,0,1,9.9,4.76Zm0,0"/></svg>
