<svg id="图层_1" data-name="图层 1" xmlns="http://www.w3.org/2000/svg" xmlns:xlink="http://www.w3.org/1999/xlink" viewBox="0 0 128 128"><defs><style>.cls-1{fill:none;}.cls-2{clip-path:url(#clip-path);}</style><clipPath id="clip-path"><rect class="cls-1" x="15.43" y="19" width="97.14" height="90"/></clipPath></defs><title>kh</title><g class="cls-2"><path class="cls-3" d="M108.69,54H93.14a3.89,3.89,0,0,0,0,7.78h15.55a3.89,3.89,0,0,0,0-7.78m0-15.54H93.14a3.89,3.89,0,0,0,0,7.77h15.55a3.89,3.89,0,1,0,0-7.77M93.14,30.71h15.55a3.89,3.89,0,1,0,0-7.77H93.14a3.89,3.89,0,0,0,0,7.77"/><path class="cls-3" d="M94.81,77.35a129.7,129.7,0,0,0-24.13-7.62,21.63,21.63,0,0,0,3.78-4,21.2,21.2,0,0,0,4.1-12.53V40.43a21.35,21.35,0,1,0-42.69,0V53.16a21.36,21.36,0,0,0,8.3,16.89A130.85,130.85,0,0,0,21.64,77.3a10.47,10.47,0,0,0-6.23,9.28v16l.21.61a8.24,8.24,0,0,0,7.75,5.66H93a8,8,0,0,0,7.89-6.91l.07-15.36a10.08,10.08,0,0,0-1.66-5.34,10,10,0,0,0-4.45-3.89"/></g></svg>
