<svg id="图层_1" data-name="图层 1" xmlns="http://www.w3.org/2000/svg" viewBox="0 0 128 128"><title>kh</title><path class="cls-1" d="M100.39,22.18H31.9a7.59,7.59,0,0,0-7.57,7.58V98.24a7.58,7.58,0,0,0,7.57,7.58h68.49A7.59,7.59,0,0,0,108,98.24V29.76A7.59,7.59,0,0,0,100.39,22.18ZM37.12,53.35H85.81a0,0,0,0,0,0,0L76.43,44a3.8,3.8,0,0,1-.2-5.17,3.84,3.84,0,0,1,5.65-.13l6.43,6.36h0l9.41,9.41a3.8,3.8,0,0,1-3,6.48H37.12a3.8,3.8,0,1,1,0-7.6ZM95,74.52H46.35a0,0,0,0,0,0,0l9.39,9.32A3.8,3.8,0,0,1,55.92,89a3.84,3.84,0,0,1-5.64.13l-6.44-6.36h0L34.43,73.4a3.8,3.8,0,0,1,3-6.48H95a3.8,3.8,0,0,1,0,7.6Z"/></svg>
