<svg id="图层_1" data-name="图层 1" xmlns="http://www.w3.org/2000/svg" xmlns:xlink="http://www.w3.org/1999/xlink" viewBox="0 0 128 128"><defs><style>.cls-1{fill:none;}.cls-2{clip-path:url(#clip-path);}</style><clipPath id="clip-path"><rect class="cls-1" x="22.39" y="22.45" width="83.21" height="83.1"/></clipPath></defs><title>kh</title><g class="cls-2"><path class="cls-3" d="M79.05,60.51H48.83a3.47,3.47,0,1,1,0-6.91H79.05a3.47,3.47,0,1,1,0,6.91m0,17.27H48.83a3.47,3.47,0,1,1,0-6.91H79.05a3.47,3.47,0,1,1,0,6.91M98,22.51h-68c-4.16,0-7.53,3.11-7.53,6.92V98.5c0,3.81,3.36,6.91,7.53,6.92H98c4.17,0,7.53-3.11,7.53-6.92V29.43c0-3.81-3.36-6.9-7.53-6.92"/></g></svg>
