<svg id="图层_1" data-name="图层 1" xmlns="http://www.w3.org/2000/svg" xmlns:xlink="http://www.w3.org/1999/xlink" viewBox="0 0 128 128"><defs><style>.cls-1{fill:none;}.cls-3{clip-path:url(#clip-path);}</style><clipPath id="clip-path"><rect class="cls-1" x="12.82" y="14.9" width="102.35" height="98.2"/></clipPath></defs><title>kh</title><path class="cls-2" d="M94.64,62.38a22.41,22.41,0,0,0-5.82-.77c-13.22,0-24,11.19-24,25s10.75,25,24,25a23.27,23.27,0,0,0,5.82-.77,25.2,25.2,0,0,0,0-48.4ZM101.3,91h-25a4.4,4.4,0,0,1,0-8.8h25a4.4,4.4,0,1,1,0,8.8Z"/><g class="cls-3"><path class="cls-2" d="M65.59,71.44A23.56,23.56,0,0,0,75,54.56c.07-.74.16-1.48.16-2.23v-14c0-12.93-10.08-23.44-22.47-23.44S30.24,25.44,30.24,38.37v14A23.73,23.73,0,0,0,40,71.64a121,121,0,0,0-21,7.1,10.79,10.79,0,0,0-6.16,9.55v15.15a4.52,4.52,0,0,0,.22,1.37,8.25,8.25,0,0,0,7.73,5.88H62a4,4,0,0,0,2.63-1,4.33,4.33,0,0,0,1.47-3.21A2.26,2.26,0,0,0,66,106a9.28,9.28,0,0,0-1.19-2.6c-3.29-7.67-7.08-21,.39-31.61C65.34,71.67,65.45,71.56,65.59,71.44Z"/></g></svg>
