<svg id="图层_1" data-name="图层 1" xmlns="http://www.w3.org/2000/svg" xmlns:xlink="http://www.w3.org/1999/xlink" viewBox="0 0 128 128"><defs><style>.cls-1{fill:none;}.cls-2{clip-path:url(#clip-path);}</style><clipPath id="clip-path"><rect class="cls-1" x="17.14" y="16.92" width="93.71" height="94.16"/></clipPath></defs><title>mb</title><g class="cls-2"><path class="cls-3" d="M79.64,86.09a2.35,2.35,0,0,1-2.51,2.29H54.69V38.24a5.94,5.94,0,0,0-3.43-5c-1.61-.68-21.75-10.07-21.75-10.07H77.13a2.51,2.51,0,0,1,2.51,2.29V46.71h6.18V20.61a3.58,3.58,0,0,0-1-2.6A3.63,3.63,0,0,0,82.16,17H20.81a3.62,3.62,0,0,0-3.67,3.66V90.67a3.87,3.87,0,0,0,2.06,3.2c1.61.92,24.27,12.59,32.74,16.72,1.83.91,2.75,0,2.75-1.15V94.1H82.16A3.63,3.63,0,0,0,84.77,93a3.58,3.58,0,0,0,1-2.6V70.29H79.64Zm0,0"/></g><path class="cls-3" d="M110.74,58.36l-17.91-17a.34.34,0,0,0-.38-.07.35.35,0,0,0-.22.32V52.31a.34.34,0,0,1-.35.35H61.8a.94.94,0,0,0-.93.93v10a1,1,0,0,0,.28.68,1,1,0,0,0,.68.28H91.88a.35.35,0,0,1,.35.35V75.65a.35.35,0,0,0,.22.32.34.34,0,0,0,.38-.07l17.91-17a.34.34,0,0,0,.11-.25.36.36,0,0,0-.11-.26Zm0,0"/></svg>
