<svg id="图层_1" data-name="图层 1" xmlns="http://www.w3.org/2000/svg" xmlns:xlink="http://www.w3.org/1999/xlink" viewBox="0 0 128 128"><defs><style>.cls-1{fill:none;}.cls-2{clip-path:url(#clip-path);}</style><clipPath id="clip-path"><rect class="cls-1" x="19.51" y="19.68" width="88.98" height="88.64"/></clipPath></defs><title>mb</title><g class="cls-2"><path class="cls-3" d="M30.51,27.35H97.82c2.54,0,4.24-1.69,4.24-3.81s-2.12-3.81-4.24-3.81H30.51c-2.54,0-4.24,1.69-4.24,3.81,0,2.54,1.7,3.81,4.24,3.81Zm73.66,8H23.73a3.9,3.9,0,0,0-4.23,3.81V104a4,4,0,0,0,4.23,4.24h80.44a4.25,4.25,0,0,0,4.24-4.24V39.63a4,4,0,0,0-4.24-4.23ZM77.92,76c2.54,0,4.24,1.69,4.24,3.81s-1.7,3.81-4.24,3.81H67.76V93c0,2.54-1.69,4.24-3.81,4.24S60.14,95.09,60.14,93V83.24H50a3.83,3.83,0,1,1,0-7.62H60.14V70.11H50a3.83,3.83,0,1,1,0-7.62h5.51l-1.7-3.81L51.25,54a3.93,3.93,0,0,1,1.27-5.5,3.86,3.86,0,0,1,5.08,2.12l2.12,3.81v.42l2.12,3.39L64,62.49l2.12-4.23,2.12-3.81V54l2.11-3.81c1.27-2.11,3.39-3,5.08-2.11a3.92,3.92,0,0,1,1.27,5.5l-1.27,4.66-2.11,4.23h5.08a3.83,3.83,0,1,1,0,7.62H68.19v5.51Zm0,0"/></g></svg>
