<svg id="图层_1" data-name="图层 1" xmlns="http://www.w3.org/2000/svg" xmlns:xlink="http://www.w3.org/1999/xlink" viewBox="0 0 128 128"><defs><style>.cls-1{fill:none;}.cls-2{clip-path:url(#clip-path);}</style><clipPath id="clip-path"><rect class="cls-1" x="17.75" y="15.85" width="92.5" height="96.29"/></clipPath></defs><title>mb</title><g class="cls-2"><path class="cls-3" d="M77.59,56.44c10.5,0,19-9.09,19-20.29s-8.52-20.29-19-20.29-19,9.08-19,20.29,8.51,20.29,19,20.29ZM31.25,82a1.68,1.68,0,0,0-1.61,1.73V98.18a1.67,1.67,0,0,0,1.61,1.72h1.53a1.67,1.67,0,0,0,1.61-1.72V83.77A1.68,1.68,0,0,0,32.78,82Zm.77,17a1.29,1.29,0,0,1,0-2.58,1.29,1.29,0,0,1,0,2.58Zm1.2-14.29a1.21,1.21,0,1,1-2.42,0A1.27,1.27,0,0,1,32,83.48a1.25,1.25,0,0,1,1.21,1.29ZM55.33,82a1.68,1.68,0,0,0-1.61,1.73V98.18a1.67,1.67,0,0,0,1.61,1.72h1.52a1.67,1.67,0,0,0,1.61-1.72V83.77A1.68,1.68,0,0,0,56.85,82Zm.76,17a1.29,1.29,0,0,1,0-2.58,1.29,1.29,0,0,1,0,2.58Zm1.2-14.29a1.21,1.21,0,1,1-2.42,0,1.27,1.27,0,0,1,1.21-1.29,1.25,1.25,0,0,1,1.21,1.29ZM19.35,87.39h8.78V81.8a1.11,1.11,0,0,1,1.07-1.14h5.64a1.11,1.11,0,0,1,1.07,1.14v5.59H52.2V81.8a1.11,1.11,0,0,1,1.07-1.14h5.64A1.11,1.11,0,0,1,60,81.8v5.59h8.59a1.66,1.66,0,0,0,1.61-1.72V69.36a1.69,1.69,0,0,0-1.61-1.73H53.73V63.15a2.5,2.5,0,0,0-2.42-2.57H36.6a2.49,2.49,0,0,0-2.41,2.57v4.48H19.35a1.68,1.68,0,0,0-1.61,1.73V85.67a1.66,1.66,0,0,0,1.61,1.72ZM35.8,63.15a.83.83,0,0,1,.8-.86H51.31a.83.83,0,0,1,.81.86v4.48H35.8V63.15Zm34.38,44.33V90.17a1.4,1.4,0,0,1-.54.1H60v10.52a1.12,1.12,0,0,1-1.07,1.15H53.27a1.12,1.12,0,0,1-1.07-1.15V90.28H35.91v10.51a1.12,1.12,0,0,1-1.07,1.15H29.2a1.12,1.12,0,0,1-1.08-1.15V90.28H18.27a1.66,1.66,0,0,1-.54-.1v17.3a1.67,1.67,0,0,0,1.62,1.72H68.57a1.67,1.67,0,0,0,1.61-1.72Zm15.48-49H69.52c-5.39,0-10.36,1-14.4,3.9V66H68.81a4,4,0,0,1,3.86,4.11v35.3c0,2.24-1.68,5.2-3.76,5.26a1.84,1.84,0,0,1-.3,1c4,.47,5.83.34,11.48.16a82.5,82.5,0,0,0,30.1-6.89V83.79c0-14.32-11.09-25.27-24.53-25.27Zm0,0"/></g></svg>
