<svg id="图层_1" data-name="图层 1" xmlns="http://www.w3.org/2000/svg" xmlns:xlink="http://www.w3.org/1999/xlink" viewBox="0 0 128 128"><defs><style>.cls-1{fill:none;}.cls-2{clip-path:url(#clip-path);}</style><clipPath id="clip-path"><rect class="cls-1" x="18.69" y="14.65" width="90.63" height="98.7"/></clipPath></defs><title>mb</title><g class="cls-2"><path class="cls-3" d="M50.67,99.08a9.5,9.5,0,0,1,0-13A8.86,8.86,0,0,1,57,83.31a8.62,8.62,0,0,1,6.31,2.74L74.44,97.59l21-21.66V19.44a4.63,4.63,0,0,0-4.58-4.72H23.27a4.67,4.67,0,0,0-4.58,4.72V105.6a4.63,4.63,0,0,0,4.58,4.72H60.38s.24,0,.42-.44a.63.63,0,0,0-.06-.56ZM36.26,35H75a3.16,3.16,0,0,1,3.37,2.9A3.16,3.16,0,0,1,75,40.79H36.26a3.16,3.16,0,0,1-3.37-2.89A3.19,3.19,0,0,1,36.26,35Zm0,17.38H60.76a2.94,2.94,0,1,1,0,5.8H36.28a2.94,2.94,0,1,1,0-5.8ZM32.89,72.66a3.17,3.17,0,0,1,3.38-2.9H49.41a2.93,2.93,0,1,1,0,5.8H36.27a3.17,3.17,0,0,1-3.38-2.9Zm75.37,4.23a3.47,3.47,0,0,0-4.87,0L74.58,105,59,89.8a3.46,3.46,0,0,0-4.86,0,3.33,3.33,0,0,0,0,4.8l18,17.64a3.52,3.52,0,0,0,2.46,1,2.93,2.93,0,0,0,2.34-1l31.28-30.51a3.34,3.34,0,0,0,0-4.79Zm0,0"/></g></svg>
