<svg id="图层_1" data-name="图层 1" xmlns="http://www.w3.org/2000/svg" xmlns:xlink="http://www.w3.org/1999/xlink" viewBox="0 0 128 128"><defs><style>.cls-1{fill:none;}.cls-2{clip-path:url(#clip-path);}</style><clipPath id="clip-path"><rect class="cls-1" x="18.97" y="22.81" width="90.07" height="82.38"/></clipPath></defs><title>mb</title><g class="cls-2"><path class="cls-3" d="M109,29.5V92.91a6.46,6.46,0,0,1-6.32,6.59h-1.13a1.19,1.19,0,0,1-1.14-.94L97.81,87.21a1.59,1.59,0,0,1,.32-1.33,20.17,20.17,0,0,0-1.54-27.13,18.19,18.19,0,0,0-26,.69,20.15,20.15,0,0,0-.23,27.17,1.63,1.63,0,0,1,.38,1.47l-2.37,9.76a2.11,2.11,0,0,1-2,1.64h-41A6.46,6.46,0,0,1,19,92.91V29.5a6.46,6.46,0,0,1,6.32-6.59h77.37A6.46,6.46,0,0,1,109,29.5ZM69.4,45.76a4.22,4.22,0,0,0-1.15-2.9,3.86,3.86,0,0,0-2.78-1.2H36.75A3.82,3.82,0,0,0,34,42.86a4.18,4.18,0,0,0-1.15,2.9,4,4,0,0,0,3.92,4.09H65.47a3.86,3.86,0,0,0,2.78-1.2,4.22,4.22,0,0,0,1.15-2.89ZM56.7,61.52a4.18,4.18,0,0,0-1.15-2.9,3.86,3.86,0,0,0-2.78-1.2H37.06a3.82,3.82,0,0,0-2.78,1.2,4.23,4.23,0,0,0,0,5.8,3.82,3.82,0,0,0,2.78,1.2H52.77a3.86,3.86,0,0,0,2.78-1.2,4.18,4.18,0,0,0,1.15-2.9ZM51.26,77.28a4.17,4.17,0,0,0-1.15-2.89,3.86,3.86,0,0,0-2.78-1.2H37.06a3.82,3.82,0,0,0-2.78,1.2,4.22,4.22,0,0,0,0,5.79,3.82,3.82,0,0,0,2.78,1.2H47.33a3.86,3.86,0,0,0,2.78-1.2,4.18,4.18,0,0,0,1.15-2.9ZM97.2,73.19A13.74,13.74,0,0,0,86.58,59.6a13.17,13.17,0,0,0-14.9,8.12,14.22,14.22,0,0,0,4.63,16.85,1.37,1.37,0,0,1,.5,1.44l-4.17,17.22a1.5,1.5,0,0,0,.52,1.54,1.37,1.37,0,0,0,1.56.11l9.18-5.46a1.18,1.18,0,0,1,1.25,0l8.59,5.37a1.37,1.37,0,0,0,1.57-.07,1.52,1.52,0,0,0,.54-1.54l-4-17.84A1.36,1.36,0,0,1,92.25,84a14,14,0,0,0,5-10.8Zm0,0"/></g></svg>
