<svg id="图层_1" data-name="图层 1" xmlns="http://www.w3.org/2000/svg" viewBox="0 0 128 128"><title>mb</title><path class="cls-1" d="M101.31,22.52H27a8,8,0,0,0-7.8,8.29V97.19c0,4.47,3.6,8.29,7.8,8.29h74a8,8,0,0,0,7.79-8.29V30.81a7.76,7.76,0,0,0-7.49-8.29ZM77,35.71l8.18,2.65v9.85L77,44.8ZM64.9,31.17l8.53,2.65v9.47L64.9,40.63ZM45,92.14l-5.34-3V71.31l5.34-3Zm16.36,4.92L56,94.79V65.63l5.33-3.41Zm0-37.87-7.82,3V94.41l-6.76-2.27V64.49l-7.12,2.65V58.06l7.12-3V46.69l1.06-.37-8.18,2.27V39.12l21.7-7.57v11L53.52,44.8v8l7.82-3.41Zm8.54,35.6-5.34,2.27V66.39l5.34,2.27Zm15.29-4.92-12.8,5.3V65.25L64.9,63V44.8l20.27,8V69.42L73.08,65.25l4.62,1.89V85.7h2.49V70.93l5.34,3V89.87ZM79.48,56.16l-7.82-3v5.3l7.82,2.66Zm0,0"/></svg>
