<svg id="图层_1" data-name="图层 1" xmlns="http://www.w3.org/2000/svg" xmlns:xlink="http://www.w3.org/1999/xlink" viewBox="0 0 128 128"><defs><style>.cls-1{fill:none;}.cls-2{clip-path:url(#clip-path);}</style><clipPath id="clip-path"><rect class="cls-1" x="18.74" y="22.42" width="90.51" height="83.17"/></clipPath></defs><title>mb</title><g class="cls-2"><path class="cls-3" d="M108.07,85.39,91.78,72.64c-1.58-1.66-4.21,0-4.21,2.22V80.4H79.69a6.35,6.35,0,0,1-4.2-2.22L66,63.77,75,49.36a6.37,6.37,0,0,1,4.21-2.22h7.88v5.54c0,2.22,2.63,3.88,4.2,2.22l16.29-12.75a3.73,3.73,0,0,0,0-6.1L91.25,23.3A2.41,2.41,0,0,0,87.05,25v5.54h-10a10.17,10.17,0,0,0-8.93,5L58.14,51l-4.2,6.65-12.61,20a5.34,5.34,0,0,1-4.21,2.77H18.73V97h20.5a10.17,10.17,0,0,0,8.93-5L58.14,76,68.13,92a10.17,10.17,0,0,0,8.93,5h10v5.54c0,2.22,2.63,3.89,4.2,2.22l16.82-13.3c1.58-1.11,1.58-4.44,0-6.1Zm0,0"/><path class="cls-3" d="M41.33,49.36l4.73,7.2,7.88-12.75L48.16,35.5a10.17,10.17,0,0,0-8.93-5H18.73V47.14H37.12a6.37,6.37,0,0,1,4.21,2.22Zm0,0"/></g></svg>
