<svg id="图层_1" data-name="图层 1" xmlns="http://www.w3.org/2000/svg" viewBox="0 0 128 128"><title>nz</title><path class="cls-1" d="M89.91,19.21a18.71,18.71,0,0,1,18.88,18.88V89.91a18.71,18.71,0,0,1-18.88,18.88H38.09A18.71,18.71,0,0,1,19.21,89.91V38.09A18.71,18.71,0,0,1,38.09,19.21ZM59.52,37.13,38.73,54.72a2.66,2.66,0,0,0-.64,2.56A2.88,2.88,0,0,0,40,59.2c1,.32.32,0,.64,0h6.07v8.64H40.65a2.87,2.87,0,0,0-2.88,2.88,4.55,4.55,0,0,0,.64,1.92l9.27,8c.32.63,1,1,1.28,1.27l9.92,8.64a7.24,7.24,0,0,0,9.28,0l9.92-8.64a2.55,2.55,0,0,0,1.28-1.27L88.63,73a2.49,2.49,0,0,0,.64-2.56,2.88,2.88,0,0,0-1.92-1.92H80.64V59.84h6.07A2.87,2.87,0,0,0,89.59,57,4.55,4.55,0,0,0,89,55L68.16,37.45a6.76,6.76,0,0,0-8.64-.32Zm12.72,9.74a2.54,2.54,0,0,1,2,1,3.71,3.71,0,0,1,1,2,2.52,2.52,0,0,1-1,1.95l-6.36,6.37h6.36c1.47,0,2.45,1,2.45,2.93A2.74,2.74,0,0,1,74.19,64H67.83v3.43H73.7a2.82,2.82,0,0,1,2.94,2.93,2.74,2.74,0,0,1-2.45,2.94H67.34v4.4a3.35,3.35,0,0,1-3.43,3.43,3.35,3.35,0,0,1-3.42-3.43V73.3H54.13a2.74,2.74,0,0,1-2.45-2.94,2.31,2.31,0,0,1,2.45-2.44h6.36V64H54.13a3,3,0,0,1,0-5.87h6.36l-6.36-6.37a3.72,3.72,0,0,1-1-1.95,2.55,2.55,0,0,1,1-2,3.69,3.69,0,0,1,1.95-1,2.55,2.55,0,0,1,2,1l5.87,5.87,5.88-5.87c1-.49,1.47-1,2.45-1Zm0,0"/></svg>
