<svg id="图层_1" data-name="图层 1" xmlns="http://www.w3.org/2000/svg" viewBox="0 0 128 128"><title>nz</title><path class="cls-1" d="M98.65,23.25H29.35a7.5,7.5,0,0,0-7.29,7.67V71.68h83.88V30.92A7.5,7.5,0,0,0,98.65,23.25ZM73.92,54.14a2.67,2.67,0,0,1,0,5.34H65.15v2.29a2.67,2.67,0,0,1-5.34,0V59.48H51a2.67,2.67,0,0,1-2.31-1.34,2.64,2.64,0,0,1,0-2.66A2.67,2.67,0,0,1,51,54.14h8.77V48H51a2.67,2.67,0,1,1,0-5.34h7.67l0,0-7.63-7.62a2.67,2.67,0,0,1,3.78-3.78l7.62,7.63,0,0,0,0,7.63-7.63a2.67,2.67,0,0,1,3.77,3.78l-7.63,7.62,0,0h7.67a2.67,2.67,0,1,1,0,5.34H65.15v6.1Z"/><path class="cls-1" d="M22.06,79.31v4a7.49,7.49,0,0,0,7.29,7.66h31v6.19H49.41a3.82,3.82,0,0,0,0,7.63H78.59a3.82,3.82,0,0,0,0-7.63H67.65V90.93h31a7.49,7.49,0,0,0,7.29-7.66v-4H22.06Z"/></svg>
