<svg id="图层_1" data-name="图层 1" xmlns="http://www.w3.org/2000/svg" viewBox="0 0 128 128"><title>nz</title><path class="cls-1" d="M96.08,59.43V100c0,5-4.79,9-10.69,9H42.62c-5.91,0-10.7-4-10.7-9V59.43H15.17a5.37,5.37,0,0,1-5.05-3,4.12,4.12,0,0,1,1.73-5L57.35,20.9a12.27,12.27,0,0,1,13.3,0l45.5,30.49a4.11,4.11,0,0,1,1.73,5,5.36,5.36,0,0,1-5,3ZM67.22,64H77.37a2.29,2.29,0,1,0,0-4.52H70.78L77,51.63a2.06,2.06,0,0,0-.74-3.13,3,3,0,0,0-3.71.63l-8.14,10.3h-.69l-8.08-10.3a3,3,0,0,0-3.7-.63,2,2,0,0,0-.76,3.12l6.14,7.81H50.64a2.29,2.29,0,1,0,0,4.52H60.79l.54.68v3.83H50.64a2.29,2.29,0,1,0,0,4.51H61.33V84.25a2.72,2.72,0,0,0,5.35,0V73H77.37a2.29,2.29,0,1,0,0-4.51H66.68V64.63Zm0,0"/></svg>
