<svg id="图层_1" data-name="图层 1" xmlns="http://www.w3.org/2000/svg" viewBox="0 0 128 128"><title>商机</title><path class="cls-1" d="M58.31,32.88A7.71,7.71,0,1,1,71,38.8h7.62a13.89,13.89,0,1,0-26.45-5.92,13.66,13.66,0,0,0,1.33,5.92h7.61a7.74,7.74,0,0,1-2.75-5.92Zm51.41,5.92H78.58a13.89,13.89,0,0,1-25.12,0H22.32a1.63,1.63,0,0,0-1.62,1.62l21,67.7a1.63,1.63,0,0,0,1.62,1.62H88.88a1.63,1.63,0,0,0,1.62-1.62l20.84-67.7a1.63,1.63,0,0,0-1.62-1.62ZM62.92,90.07a2,2,0,0,1-1.2,1.86,2,2,0,0,1-2.18-.29l-10.82-9a3.09,3.09,0,0,1,4-4.73l4,3.39V57.71a3.1,3.1,0,0,1,6.19,0ZM83.57,68.41a3.09,3.09,0,0,1-4.26.46l-4-3.39V89.05a3.09,3.09,0,0,1-6.18,0V56.68a2.06,2.06,0,0,1,3.38-1.57l10.81,9a3.09,3.09,0,0,1,.3,4.27Zm0,0"/><path class="cls-1" d="M66,46.76a13.92,13.92,0,0,0,12.56-8H71a7.71,7.71,0,0,1-9.88,0H53.46a13.88,13.88,0,0,0,12.56,8Zm0,0"/></svg>
