<svg id="图层_1" data-name="图层 1" xmlns="http://www.w3.org/2000/svg" xmlns:xlink="http://www.w3.org/1999/xlink" viewBox="0 0 128 128"><defs><style>.cls-1{fill:none;}.cls-2{clip-path:url(#clip-path);}</style><clipPath id="clip-path"><rect class="cls-1" x="18.04" y="19.59" width="91.96" height="89.56"/></clipPath></defs><title>商机</title><g class="cls-2"><path class="cls-3" d="M83.11,64.33A19.15,19.15,0,1,1,64,45.19,19.17,19.17,0,0,1,83.11,64.33m25.06-12.56A3.81,3.81,0,0,0,104.24,49a7.41,7.41,0,0,1-2-.13,7.66,7.66,0,0,1-4.88-11.75,3.82,3.82,0,0,0-.44-4.79A46.11,46.11,0,0,0,89.18,26a45.65,45.65,0,0,0-14-6.28,3.83,3.83,0,0,0-4.37,2A7.63,7.63,0,0,1,64,26h0a7.63,7.63,0,0,1-6.85-4.26,3.82,3.82,0,0,0-4.36-2,45.84,45.84,0,0,0-14,6.28A46.11,46.11,0,0,0,31,32.32a3.84,3.84,0,0,0-.45,4.79,7.65,7.65,0,0,1-4.87,11.74,7.47,7.47,0,0,1-2,.15,3.77,3.77,0,0,0-3.92,2.77,46.17,46.17,0,0,0,0,25.11,3.81,3.81,0,0,0,3.92,2.77,7.84,7.84,0,0,1,2,.16,7.62,7.62,0,0,1,4.87,11.73A3.84,3.84,0,0,0,31,96.33a46.11,46.11,0,0,0,7.75,6.28,45.11,45.11,0,0,0,14,6.27,3.81,3.81,0,0,0,4.36-2,7.67,7.67,0,0,1,13.73,0,3.83,3.83,0,0,0,4.37,2,45.63,45.63,0,0,0,14-6.27,46.17,46.17,0,0,0,7.75-6.29,3.82,3.82,0,0,0,.44-4.79,7.65,7.65,0,0,1,4.88-11.74,7.85,7.85,0,0,1,2-.14,3.85,3.85,0,0,0,3.93-2.78,46.17,46.17,0,0,0,0-25.11"/></g></svg>
