<svg id="图层_1" data-name="图层 1" xmlns="http://www.w3.org/2000/svg" viewBox="0 0 128 128"><title>商机</title><path class="cls-1" d="M46.63,96.44C45.13,89.92,35.15,84.54,32.3,81a41,41,0,1,1,64.11.06c-2.85,3.51-13.76,8.84-15.32,15.36H46.63ZM82,102.81v4.39a8.79,8.79,0,0,1-8.79,8.8H55.59a8.79,8.79,0,0,1-8.8-8.8v-4.39ZM68.05,35.08c4.14,0,8,1.65,11.65,5.07a16.41,16.41,0,0,1,5.43,12.52,3.47,3.47,0,0,0,3.41,3.41A3.51,3.51,0,0,0,92,52.67c0-7.45-2.38-13.35-7.25-17.8A24,24,0,0,0,68.05,28.2a3.33,3.33,0,0,0-3.41,3.2v.21A3.28,3.28,0,0,0,68.05,35.08Z"/></svg>
