<svg id="图层_1" data-name="图层 1" xmlns="http://www.w3.org/2000/svg" xmlns:xlink="http://www.w3.org/1999/xlink" viewBox="0 0 128 128"><defs><style>.cls-1{fill:none;}.cls-2{clip-path:url(#clip-path);}</style><clipPath id="clip-path"><rect class="cls-1" x="16.73" y="18.72" width="94.54" height="90.55"/></clipPath></defs><title>wq</title><g class="cls-2"><path class="cls-3" d="M70.72,65.9a7.8,7.8,0,0,1-13.55,0ZM48.2,34.47H79.69V26.61H48.2Zm55.1,0H87.56V24c0-2.53-2.06-5.23-7.85-5.23H48.19c-5.79,0-7.86,2.7-7.86,5.23V34.47H24.6a7.88,7.88,0,0,0-7.89,7.86v15.9h94.47V42.33a7.88,7.88,0,0,0-7.88-7.86Zm0,0"/><path class="cls-3" d="M103.3,65.72a4.14,4.14,0,0,1-.93.18H79.13a15.67,15.67,0,0,1-30.37,0h-32v35.37a7.89,7.89,0,0,0,7.89,7.86h78.7a7.88,7.88,0,0,0,7.88-7.86V65.9H103.3Zm0,0"/></g></svg>
