<svg id="图层_1" data-name="图层 1" xmlns="http://www.w3.org/2000/svg" xmlns:xlink="http://www.w3.org/1999/xlink" viewBox="0 0 128 128"><defs><style>.cls-1{fill:none;}.cls-3{clip-path:url(#clip-path);}</style><clipPath id="clip-path"><rect class="cls-1" x="66.8" y="59.67" width="52.02" height="49.27"/></clipPath></defs><title>wz</title><path class="cls-2" d="M46.88,68.06H30.12a4.08,4.08,0,1,1,0-8.15H46.88a4.08,4.08,0,1,1,0,8.15m0,16.29H30.12a4.07,4.07,0,1,1,0-8.14H46.88a4.07,4.07,0,1,1,0,8.14M30.12,43.62H63.63a4.08,4.08,0,1,1,0,8.15H30.12a4.08,4.08,0,1,1,0-8.15m62.89,8A34.22,34.22,0,0,1,109.7,56V27.3a8.28,8.28,0,0,0-8.39-8.12H17.57A8.27,8.27,0,0,0,9.18,27.3V92.53a8.28,8.28,0,0,0,8.39,8.12h46.3a31.82,31.82,0,0,1-4.51-16.3c0-18.07,15.07-32.72,33.65-32.72"/><rect class="cls-1" x="9.2" y="19.05" width="108.94" height="89.89"/><g class="cls-3"><path class="cls-2" d="M103.61,84.29A10.84,10.84,0,1,1,92.77,73.76h0a10.7,10.7,0,0,1,10.81,10.53m14.17-6.91a2.15,2.15,0,0,0-2.22-1.53,3.89,3.89,0,0,1-1.13-.07,4.21,4.21,0,0,1-3.4-5,4.16,4.16,0,0,1,.64-1.5,2.08,2.08,0,0,0-.25-2.64A25.87,25.87,0,0,0,107,63.2a26.19,26.19,0,0,0-7.92-3.46,2.19,2.19,0,0,0-2.47,1.11A4.33,4.33,0,0,1,92.8,63.2h0a4.34,4.34,0,0,1-3.88-2.34,2.16,2.16,0,0,0-2.46-1.1,26.06,26.06,0,0,0-7.92,3.45,25.64,25.64,0,0,0-4.41,3.47,2.06,2.06,0,0,0-.26,2.63,4.14,4.14,0,0,1-1.2,5.84,4.55,4.55,0,0,1-1.55.62,3.89,3.89,0,0,1-1.13.08,2.14,2.14,0,0,0-2.22,1.53,24.76,24.76,0,0,0,0,13.81A2.16,2.16,0,0,0,70,92.72a4.74,4.74,0,0,1,1.13.08,4.21,4.21,0,0,1,3.41,4.92,4,4,0,0,1-.66,1.54,2.06,2.06,0,0,0,.26,2.63,27.67,27.67,0,0,0,12.3,6.91,2.18,2.18,0,0,0,2.47-1.1,4.39,4.39,0,0,1,5.82-1.9,4.32,4.32,0,0,1,2,1.9,2.19,2.19,0,0,0,2.47,1.1,26.16,26.16,0,0,0,7.92-3.45,26.68,26.68,0,0,0,4.38-3.46,2.06,2.06,0,0,0,.25-2.64,4.14,4.14,0,0,1,1.21-5.83,4.37,4.37,0,0,1,1.55-.63,4.74,4.74,0,0,1,1.13-.07,2.17,2.17,0,0,0,2.22-1.53,24.61,24.61,0,0,0,0-13.82"/></g></svg>
